<svg aria-hidden="true" style="position: absolute; width: 0; height: 0; overflow: hidden;" version="1.1" xmlns="http://www.w3.org/2000/svg" xmlns:xlink="http://www.w3.org/1999/xlink">
<defs>
<symbol  id="logo-text" width="188" height="17" viewBox="0 0 188 17" fill="none" xmlns="http://www.w3.org/2000/svg">
<path d="M8.94469 16.8893C4.1019 16.8893 0.888672 13.6227 0.888672 8.53377C0.888672 3.55599 4.056 0.222656 8.82994 0.222656C12.8465 0.222656 15.6695 2.51154 16.0827 5.95599H12.7547C12.4333 3.97821 10.8956 2.8671 8.82994 2.8671C5.93803 2.8671 4.21666 5.13377 4.21666 8.53377C4.21666 12.2671 6.1446 14.2449 8.94469 14.2449C11.3776 14.2449 12.9383 12.9115 13.0989 10.9115V10.6893H8.62337V8.20043H16.1974V10.2449C16.0597 14.2227 13.1678 16.8893 8.94469 16.8893Z" fill="#FBFBFB"/>
<path d="M18.2039 16.6671V0.444878H26.2599C30.3682 0.444878 31.9978 2.37821 31.9978 5.17821C31.9978 7.68932 30.1617 8.88932 28.0272 9.17821V9.24488C29.4043 9.57821 30.024 10.3115 30.5978 11.756C31.3322 13.5782 31.447 15.756 32.388 16.5338V16.6671H28.7157C27.9354 15.9115 27.7518 13.5338 27.3386 12.0893C26.9255 10.6004 26.0304 10.4227 24.3549 10.4227H21.4171V16.6671H18.2039ZM21.4171 7.84488H25.9156C27.7977 7.84488 28.6698 6.77821 28.6698 5.40043C28.6698 3.88932 27.5911 3.02266 25.9156 3.02266H21.4171V7.84488Z" fill="#FBFBFB"/>
<path d="M34.132 16.6671V0.444878H45.5848V3.02266H37.3452V6.88932H44.7815V9.4671H37.3452V14.0227H45.6996V16.6671H34.132Z" fill="#FBFBFB"/>
<path d="M47.9307 16.6671V0.444878H59.3836V3.02266H51.144V6.88932H58.5803V9.4671H51.144V14.0227H59.4983V16.6671H47.9307Z" fill="#FBFBFB"/>
<path d="M61.7295 16.6671V0.444878H65.6313L71.1856 9.40043C72.884 12.1115 73.0906 13.0004 73.0906 13.0004H73.1594L73.1135 0.444878H76.3267V16.6671H72.402L66.6411 7.44488C65.3329 5.35599 64.9886 4.08932 64.9886 4.08932H64.9427V16.6671H61.7295Z" fill="#FBFBFB"/>
<path d="M78.744 16.6671V13.3782H82.0949V16.6671H78.744Z" fill="#FBFBFB"/>
<path d="M84.5081 16.6671V0.444878H87.7213V6.93377H95.4101V0.444878H98.6233V16.6671H95.4101V9.51154H87.7213V16.6671H84.5081Z" fill="#FBFBFB"/>
<path d="M99.9967 16.6671L106.423 0.444878H109.912L116.43 16.6671H112.987L111.633 12.9338H104.679L103.325 16.6671H99.9967ZM105.597 10.356H110.715L109.223 6.35599C108.19 3.40043 108.167 2.8671 108.167 2.8671H108.122C108.122 2.8671 108.122 3.40043 107.089 6.35599L105.597 10.356Z" fill="#FBFBFB"/>
<path d="M117.799 16.6671V0.444878H125.855C129.963 0.444878 131.593 2.37821 131.593 5.17821C131.593 7.68932 129.757 8.88932 127.622 9.17821V9.24488C128.999 9.57821 129.619 10.3115 130.193 11.756C130.927 13.5782 131.042 15.756 131.983 16.5338V16.6671H128.311C127.53 15.9115 127.347 13.5338 126.933 12.0893C126.52 10.6004 125.625 10.4227 123.95 10.4227H121.012V16.6671H117.799ZM121.012 7.84488H125.51C127.392 7.84488 128.265 6.77821 128.265 5.40043C128.265 3.88932 127.186 3.02266 125.51 3.02266H121.012V7.84488Z" fill="#FBFBFB"/>
<path d="M137.133 16.6671L130.982 0.444878H134.425C134.425 0.444878 137.753 9.53377 138.097 10.6449C138.648 12.4227 138.901 13.3338 138.901 13.3338H138.947C138.924 13.3338 139.176 12.4227 139.75 10.6449C140.117 9.53377 143.307 0.444878 143.307 0.444878H146.635L140.714 16.6671H137.133Z" fill="#FBFBFB"/>
<path d="M147.951 16.6671V0.444878H159.404V3.02266H151.165V6.88932H158.601V9.4671H151.165V14.0227H159.519V16.6671H147.951Z" fill="#FBFBFB"/>
<path d="M167.496 16.8893C163.227 16.8893 160.657 14.6449 160.657 11.3115H164.329C164.283 13.2004 165.568 14.2449 167.496 14.2449C169.539 14.2449 170.503 13.4671 170.503 12.3115C170.503 11.156 169.677 10.6671 166.739 9.88932C164.053 9.17821 161.116 8.33377 161.116 5.00043C161.116 2.35599 163.503 0.222656 167.267 0.222656C171.145 0.222656 173.624 2.33377 173.624 5.31154H170.067C170.044 3.73377 168.942 2.8671 167.267 2.8671C165.637 2.8671 164.558 3.6671 164.558 4.73377C164.558 6.00043 165.453 6.40043 167.795 7.04488C171.26 7.97821 174.06 8.35599 174.06 11.9782C174.06 14.8893 171.329 16.8893 167.496 16.8893Z" fill="#FBFBFB"/>
<path d="M179.293 16.6671V3.08932H174.22V0.444878H187.555V3.08932H182.506V16.6671H179.293Z" fill="#FBFBFB"/>
</symbol>
<symbol id="logo-img" viewBox="0 0 17 16.67">
<path fill="#fbfbfb" style="fill: var(--color1, #fbfbfb)" d="M15.15 0.163h-2.089c-0.644 0-1.167 0.512-1.167 1.144v2.047c0 0.632 0.522 1.144 1.167 1.144h2.089c0.644 0 1.167-0.512 1.167-1.144v-2.047c0-0.632-0.523-1.144-1.167-1.144z"></path>
<path fill="#fbfbfb" style="fill: var(--color1, #fbfbfb)" d="M3.506 12.002h-2.249c-0.694 0-1.257 0.512-1.257 1.144v2.047c0 0.632 0.563 1.144 1.257 1.144h2.249c0.694 0 1.257-0.512 1.257-1.144v-2.047c0-0.632-0.563-1.144-1.257-1.144z"></path>
<path fill="#fbfbfb" style="fill: var(--color1, #fbfbfb)" d="M3.256 6.033h-2.089c-0.644 0-1.167 0.512-1.167 1.144v2.047c0 0.632 0.523 1.144 1.167 1.144h2.089c0.645 0 1.167-0.512 1.167-1.144v-2.047c0-0.632-0.522-1.144-1.167-1.144z"></path>
<path fill="#fbfbfb" style="fill: var(--color1, #fbfbfb)" d="M9.255 11.97h-2.089c-0.644 0-1.167 0.512-1.167 1.144l-0 2.047c0 0.632 0.523 1.144 1.167 1.144h2.089c0.645 0 1.167-0.512 1.167-1.144v-2.047c0-0.632-0.522-1.144-1.167-1.144z"></path>
<path fill="#fbfbfb" style="fill: var(--color1, #fbfbfb)" d="M3.256 0.045h-2.089c-0.644 0-1.167 0.512-1.167 1.144v2.047c0 0.632 0.523 1.144 1.167 1.144h2.089c0.645 0 1.167-0.512 1.167-1.144v-2.047c0-0.632-0.522-1.144-1.167-1.144z"></path>
<path fill="#fbfbfb" style="fill: var(--color1, #fbfbfb)" d="M9.416 6.094h-2.089c-0.644 0-1.167 0.512-1.167 1.144v2.047c0 0.632 0.523 1.144 1.167 1.144h2.089c0.645 0 1.167-0.512 1.167-1.144v-2.047c0-0.632-0.522-1.144-1.167-1.144z"></path>
<path fill="#fbfbfb" style="fill: var(--color1, #fbfbfb)" d="M15.281 11.97h-2.089c-0.644 0-1.167 0.512-1.167 1.144v2.047c0 0.632 0.523 1.144 1.167 1.144h2.089c0.645 0 1.167-0.512 1.167-1.144v-2.047c0-0.632-0.523-1.144-1.167-1.144z"></path>
<path fill="#fbfbfb" style="fill: var(--color1, #fbfbfb)" d="M9.164 0.117h-2.089c-0.644 0-1.167 0.512-1.167 1.144v2.047c0 0.632 0.523 1.144 1.167 1.144h2.089c0.645 0 1.167-0.512 1.167-1.144v-2.047c0-0.632-0.522-1.144-1.167-1.144z"></path>
<path fill="#fbfbfb" style="fill: var(--color1, #fbfbfb)" d="M15.13 6.213h-2.089c-0.644 0-1.167 0.512-1.167 1.144v2.047c0 0.632 0.523 1.144 1.167 1.144h2.089c0.645 0 1.167-0.512 1.167-1.144v-2.047c0-0.632-0.523-1.144-1.167-1.144z"></path>
</symbol>
</defs>
</svg>

